<svg width="39" height="39" viewBox="0 0 39 39" fill="none" xmlns="http://www.w3.org/2000/svg">
<path d="M19.5 0C8.7477 0 0 8.7477 0 19.5C0 30.2523 8.7477 39 19.5 39C30.2523 39 39 30.2523 39 19.5C39 8.7477 30.2523 0 19.5 0ZM19.5 34.8507C11.0357 34.8507 4.14887 27.9647 4.14887 19.5C4.14887 11.0353 11.0357 4.14927 19.5 4.14927C27.9643 4.14927 34.8511 11.0353 34.8511 19.5C34.8511 27.9647 27.9643 34.8507 19.5 34.8507Z" fill="#707070"/>
<path d="M29.6626 18.898H20.8993V8.36121C20.8993 7.47452 20.1804 6.75562 19.2937 6.75562C18.407 6.75562 17.6881 7.47452 17.6881 8.36121V20.5036C17.6881 21.3902 18.407 22.1092 19.2937 22.1092H29.6626C30.5493 22.1092 31.2682 21.3902 31.2682 20.5036C31.2682 19.6169 30.5493 18.898 29.6626 18.898Z" fill="#707070"/>
</svg>
