<svg width="70" height="70" viewBox="0 0 70 70" fill="none" xmlns="http://www.w3.org/2000/svg">
<g clip-path="url(#clip0)">
<path d="M34.7665 68.4559C32.3281 68.4559 29.8909 67.9644 27.6339 66.9827L16.8415 62.2911C12.9371 60.5928 8.80879 59.5172 4.57149 59.0936L1.02734 58.7392C0.443834 58.6811 0 58.1903 0 57.6041V46.4867C0 46.24 0.0802817 45.9998 0.228444 45.8027C0.493438 45.4483 6.84548 37.1499 16.5485 39.309C22.0057 40.5218 26.3996 42.7912 29.1246 44.4817C31.1029 45.7087 33.422 46.3569 35.8311 46.3569H46.6234C48.4836 46.3569 50.1186 47.3411 51.033 48.8175L60.3281 38.1087C62.1302 35.7022 65.0784 34.2285 68.165 34.2285H68.8595C69.2452 34.2285 69.6042 34.423 69.8144 34.7454C70.0252 35.0678 70.0585 35.4758 69.9038 35.8282L61.4971 54.9339C59.6591 59.1125 55.9165 62.2689 51.4867 63.3766L50.0076 63.746L41.4038 67.1877C39.2864 68.0342 37.0262 68.4559 34.7665 68.4559ZM2.28183 56.5716L4.79862 56.8235C9.27155 57.2706 13.6296 58.4069 17.752 60.1992L28.5437 64.8908C32.3385 66.5408 36.7148 66.6055 40.5573 65.0684L49.2316 61.5986C49.2799 61.5797 49.3288 61.564 49.3791 61.5516L50.9332 61.1626C54.6842 60.2247 57.8531 57.5526 59.4084 54.0149L67.0763 36.5886C65.113 36.8777 63.3063 37.9358 62.1028 39.5401L51.8058 51.4074C51.8071 51.4518 51.8078 51.4955 51.8078 51.5406C51.8078 54.3987 49.4822 56.7243 46.6241 56.7243H31.5664C29.6089 56.7243 27.6743 57.0382 25.8174 57.657L25.3984 56.5931L25.044 55.509L25.1021 55.49C27.1861 54.7956 29.3629 54.4425 31.5664 54.4425H46.6241C48.2238 54.4425 49.5266 53.1403 49.5266 51.5399C49.5266 49.9395 48.2245 48.6374 46.6241 48.6374H35.8317C32.9971 48.6374 30.2623 47.8705 27.923 46.4195C25.3488 44.8224 21.1989 42.6796 16.055 41.5354C8.70697 39.9056 3.41948 45.5449 2.28248 46.8901V56.5716H2.28183Z" fill="white"/>
<path d="M44.9251 33.9707C43.1707 33.9707 41.2034 33.429 39.0378 32.3461C38.7754 32.2143 38.5731 31.9858 38.4738 31.7098C38.3857 31.4624 36.3474 25.5992 39.5867 21.2633C41.941 18.1115 46.3676 16.6919 52.7509 17.0476C53.3331 17.0796 53.7972 17.5462 53.8259 18.1298C53.8488 18.5827 54.3194 29.2745 48.8674 32.8344C47.7082 33.5921 46.3911 33.9707 44.9251 33.9707ZM40.4926 30.5153C43.4892 31.9206 45.8846 32.0583 47.6207 30.9246C50.8535 28.8131 51.5526 22.5452 51.5696 19.2831C46.5679 19.161 43.1628 20.2882 41.4142 22.6281C39.3334 25.4145 40.1421 29.2471 40.4926 30.5153Z" fill="white"/>
<path d="M27.4798 19.0246C25.4571 19.0246 23.1237 18.5912 21.0873 17.0998C17.6332 14.5686 16.0459 9.74976 16.3683 2.77765C16.3957 2.19479 16.8578 1.72616 17.4407 1.69156C17.9341 1.6635 29.6135 1.04017 33.5434 6.93924C35.3735 9.68514 35.2234 13.2815 33.0989 17.6304C32.9696 17.8948 32.7438 18.0991 32.4677 18.2002C32.3143 18.257 30.1728 19.0246 27.4798 19.0246ZM32.0741 17.1298H32.0852H32.0741ZM18.6136 3.93619C18.515 9.52066 19.7989 13.3272 22.4351 15.2592C25.5916 17.5717 29.9013 16.5887 31.2563 16.1938C32.8065 12.8298 32.9377 10.144 31.6453 8.20417C29.2434 4.59867 22.1995 3.89376 18.6136 3.93619Z" fill="white"/>
<path d="M36.3885 48.2367C36.3526 48.2367 36.3167 48.2347 36.2801 48.2314C35.6725 48.174 35.2175 47.6486 35.2482 47.0383C35.3154 45.6964 35.4303 44.4236 35.5863 43.2174C36.0608 35.1449 35.8161 16.3459 23.9305 11.1452C23.3535 10.8926 23.0898 10.2203 23.3424 9.64271C23.5943 9.06638 24.2686 8.80334 24.8449 9.05528C31.849 12.1197 36.2553 19.7491 37.5849 31.1184C37.7043 32.1372 37.7937 33.1417 37.8603 34.1201C40.9906 26.2101 45.7795 23.4153 46.0647 23.2554C46.613 22.9453 47.3087 23.1424 47.6181 23.69C47.9255 24.2383 47.7323 24.9321 47.186 25.2415C47.0653 25.312 39.7218 29.719 37.8786 43.3095C37.7383 45.6344 37.5359 47.1166 37.517 47.2524C37.438 47.8215 36.9518 48.2367 36.3885 48.2367Z" fill="white"/>
</g>
<defs>
<clipPath id="clip0">
<rect width="70" height="70" fill="white"/>
</clipPath>
</defs>
</svg>
