<svg width="34" height="34" viewBox="0 0 34 34" fill="none" xmlns="http://www.w3.org/2000/svg">
<path d="M16.9995 0C10.0981 0 4.48276 5.61534 4.48276 12.5174C4.48276 14.3178 4.85124 16.0367 5.57743 17.6268C8.70696 24.475 14.7071 31.7052 16.472 33.7578C16.6042 33.9113 16.797 33.9997 16.9998 33.9997C17.2027 33.9997 17.3955 33.9113 17.5277 33.7578C19.2918 31.7056 25.292 24.4757 28.4226 17.6268C29.1491 16.0367 29.5173 14.3178 29.5173 12.5174C29.5166 5.61534 23.9012 0 16.9995 0ZM16.9995 19.019C13.4145 19.019 10.4976 16.1021 10.4976 12.5171C10.4976 8.93173 13.4145 6.0148 16.9995 6.0148C20.5845 6.0148 23.5014 8.93173 23.5014 12.5171C23.5018 16.1021 20.5849 19.019 16.9995 19.019Z" fill="#393939"/>
</svg>
