<svg width="39" height="39" viewBox="0 0 39 39" fill="none" xmlns="http://www.w3.org/2000/svg">
<path d="M3.58075 37.3675L4.10125 35.2887L2.66594 34.722L1.68002 36.3469C1.68002 36.3469 2.22359 37.8213 1.61987 38.9999C1.62034 39 2.37579 37.7132 3.58075 37.3675ZM2.6165 36.4136C2.79318 36.3412 2.99681 36.4239 3.06979 36.5974C3.14336 36.7709 3.05955 36.9706 2.88287 37.043C2.70619 37.1154 2.50256 37.0328 2.42958 36.8593C2.35531 36.685 2.43923 36.4853 2.6165 36.4136Z" fill="#707070"/>
<path d="M18.6393 13.2563C14.506 16.6463 9.09486 23.6291 4.50581 31.7861L4.50322 31.7829L3.70105 33.1985L4.55643 33.5276L5.00842 32.3367C7.45661 27.9238 14.0982 16.3992 26.2424 8.74224C26.2424 8.74224 30.7637 6.04945 35.2183 2.32532C34.1337 3.2319 31.9942 4.36824 30.8341 5.10132C27.7892 7.02513 24.0318 8.83311 18.6393 13.2563Z" fill="#707070"/>
<path d="M3.90785 25.35C2.96796 28.672 3.02175 31.2021 3.38547 31.8974H3.95399C5.52385 28.6458 13.0848 16.8671 17.7909 13.1801C22.6668 9.35995 26.428 7.13717 29.5914 5.51611C30.7022 4.94699 31.8417 4.17613 32.8693 3.40338C34.1171 2.41935 35.3821 1.36681 36.4897 0.33676L33.2791 2.44242L34.7106 0.252835L31.9775 3.03202L33.756 0C29.5484 0.379605 25.6439 2.48468 25.6439 2.48468C24.0818 4.33751 22.8237 7.28501 22.8237 7.28501C22.7802 5.8112 23.7783 3.57947 23.7783 3.57947C23.0408 3.91623 20.2385 5.51681 20.2385 5.51681C18.8678 6.65386 18.4421 9.64362 18.4421 9.64362C18.1815 8.46432 19.0925 6.19092 19.0925 6.19092C15.1443 8.46502 12.3241 12.3389 12.3241 12.3389C10.3721 16.1706 11.9771 19.1604 11.3695 18.4446C10.7619 17.7288 10.8926 15.1181 10.8926 15.1181C6.77084 19.0765 6.33744 20.9709 6.33744 20.9709C5.64344 22.6553 5.03584 27.1611 5.03584 27.1611C4.64528 26.7399 5.03584 24.382 5.03584 24.382C4.0378 26.4876 4.51534 28.4665 4.51534 28.4665C4.03839 28.2976 3.90785 25.35 3.90785 25.35Z" fill="#707070"/>
<path d="M36.4903 1.67041C36.4903 1.67041 34.9033 3.20825 32.8699 4.73703C29.6823 7.25114 26.6131 9.3063 26.6131 9.3063C14.5892 16.4113 7.8893 28.0063 5.67487 31.982H6.85218C7.26827 31.6484 7.89318 31.3969 10.5027 30.6414C13.7998 29.6868 15.7666 27.6939 15.7666 27.6939C15.7666 27.6939 12.7588 29.3783 11.3414 29.21C9.92398 29.0417 8.01936 29.5749 8.01936 29.5749C8.01936 29.5749 7.29205 29.2381 10.8786 28.7048C14.4651 28.1714 20.3653 24.1573 20.3653 24.1573C20.3653 24.1573 18.1092 25.0836 17.0682 24.9991C16.0272 24.9146 13.453 24.9991 13.453 24.9991C15.1591 24.606 16.75 24.8308 19.3531 23.8481C21.9562 22.8653 21.8116 22.9498 21.8116 22.9498C24.7617 21.9671 25.9871 18.9076 25.9871 18.9076C25.4768 19.1041 21.5798 19.5811 19.9633 19.1041C18.3467 18.6272 15.5926 19.1041 15.5926 19.1041C18.1957 18.234 18.7745 18.6272 19.4102 18.599C20.0466 18.5709 22.1004 18.7392 26.1786 17.3359C30.2568 15.9326 31.4136 14.1919 31.4136 14.1919L28.6633 14.5593C30.4592 14.2572 32.4835 13.0689 32.4835 13.0689C31.2395 13.4057 29.3016 13.574 29.3016 13.574C31.5865 13.0689 32.8593 12.3672 32.8593 12.3672C34.9996 10.739 35.4912 8.32486 35.4912 8.32486C32.4541 9.36327 30.0539 8.88632 30.0539 8.88632C34.2192 8.60595 35.376 7.5387 35.9541 7.28645C36.5328 7.03361 36.771 5.98814 36.771 5.98814C34.6666 6.74617 32.2804 6.87224 32.2804 6.87224C34.8617 6.47215 37.0737 5.16666 37.0737 5.16666V3.85988C36.0757 4.4284 34.3195 4.87075 34.3195 4.87075L37.0525 3.10243C37.2061 2.21775 36.4903 1.67041 36.4903 1.67041Z" fill="#707070"/>
<path d="M2.77209 34.2023L4.39763 34.8535L4.70037 34.1338L3.07496 33.4828L2.77209 34.2023Z" fill="#707070"/>
<path d="M20.8384 33.6005C15.4676 36.1825 10.3081 37.9424 3.44622 38.1729C2.80601 38.1947 2.80284 38.8349 3.44622 38.8131C9.58465 38.607 14.6923 37.2875 19.6181 34.9788C25.1054 32.4064 30.1453 30.2509 37.0185 29.5184C37.6524 29.4505 37.3828 28.834 36.7534 28.9012C30.6663 29.5505 25.7206 31.2535 20.8384 33.6005Z" fill="#707070"/>
</svg>
