<svg width="70" height="70" viewBox="0 0 70 70" fill="none" xmlns="http://www.w3.org/2000/svg">
<g clip-path="url(#clip0)">
<path d="M69.117 8.86759L48.7005 0.117643C48.1026 -0.138977 47.3996 0.0360223 46.9884 0.54639L41.155 7.83797C40.8779 8.18209 40.7729 8.63134 40.8691 9.06296C40.9595 9.47421 41.2279 9.81258 41.5925 10.0138L23.2701 16.8854C21.733 17.4629 20.4176 18.5567 19.5748 19.9625L13.5198 30.0541C12.2307 32.2037 12.1286 34.8257 13.2514 37.0657L13.6773 37.9173H7.29272C6.48773 37.9173 5.83435 38.5707 5.83435 39.3756V67.0839H1.45938C0.654382 67.0839 0.00100708 67.7372 0.00100708 68.5422C0.00100708 69.3472 0.654382 70.0006 1.45938 70.0006H51.0425C51.8475 70.0006 52.5008 69.3472 52.5008 68.5422C52.5008 67.7372 51.8475 67.0839 51.0425 67.0839H46.6675V46.6674C46.6675 46.5565 46.6266 46.4602 46.6062 46.3582C49.3421 44.5061 52.4687 41.6479 55.1958 37.232C59.8304 29.7362 62.4349 23.7018 63.5054 20.9863L63.6688 21.0679C64.2929 21.38 64.9609 21.5345 65.6288 21.5345C66.425 21.5345 67.2184 21.3158 67.9241 20.8754C69.225 20.0733 70.0007 18.682 70.0007 17.1538V10.2063C70.0007 9.62296 69.6536 9.09796 69.117 8.86759ZM43.7509 67.0839H8.75109V40.834H16.0632C16.0982 40.834 16.1332 40.8369 16.171 40.834H27.7326C26.4172 41.6331 24.8014 42.6394 22.7567 43.9403C21.2021 44.929 20.1376 46.4631 19.7584 48.2656C19.3763 50.0681 19.7293 51.9084 20.7588 53.4484C22.0625 55.4113 24.2121 56.4788 26.4112 56.4788C27.6012 56.4788 28.8087 56.1638 29.9024 55.5134L39.924 49.5022C40.4986 49.3622 41.9074 48.9568 43.7506 48.0381V67.0839H43.7509ZM24.3901 34.2337C26.6214 33.2771 29.6051 31.5446 31.1188 29.78C32.2826 30.4625 34.1142 31.3403 36.4038 31.7896C34.7763 33.8049 33.1429 36.2549 32.4517 37.9904C32.3321 37.9583 32.2154 37.9176 32.0842 37.9176H26.0935C25.7842 36.4678 25.0697 35.1874 24.3901 34.2337ZM52.7224 35.6978C46.9709 45.0019 39.1716 46.6849 39.0959 46.6994C38.9325 46.7344 38.7722 46.7956 38.6293 46.8802L28.4094 53.0111C26.6302 54.0814 24.3378 53.5652 23.1828 51.8327C22.5994 50.9548 22.3981 49.9048 22.614 48.8752C22.8328 47.8486 23.4394 46.9706 24.3261 46.4077C32.1632 41.4174 33.5777 40.869 33.5486 40.8369C34.3564 40.8369 35.0039 40.2535 35.0039 39.4485C35.1527 38.5357 37.8098 34.2657 40.4143 31.6611C40.8314 31.2439 40.9568 30.617 40.7293 30.0714C40.5047 29.5261 39.9709 29.1702 39.3818 29.1702C34.8434 29.1702 31.5768 26.6006 31.5447 26.5743C31.1072 26.2272 30.521 26.064 30.0135 26.309C29.506 26.5511 29.1968 26.9711 29.1968 27.5311C28.6806 28.7823 23.0835 31.9469 21.876 32.0839C21.2751 32.0839 20.7414 32.4486 20.5226 33.0086C20.3039 33.5686 20.4498 34.2044 20.8901 34.6127C20.9076 34.6302 22.436 36.0827 23.0601 37.9173H16.941L15.8648 35.7589C15.1911 34.4143 15.2494 32.8423 16.0252 31.5531L22.0801 21.4615C22.5876 20.6156 23.3751 19.9624 24.2967 19.6153L45.1275 11.8044L60.8861 19.6823C59.9208 22.147 57.3453 28.2166 52.7224 35.6978ZM67.084 17.1595C67.084 17.8945 66.5999 18.2708 66.3927 18.3992C66.1856 18.5275 65.6286 18.79 64.9752 18.4633L44.5588 8.25509L48.5721 3.24137L67.0841 11.1747V17.1595H67.084Z" fill="white"/>
</g>
<defs>
<clipPath id="clip0">
<rect width="70" height="70" fill="white"/>
</clipPath>
</defs>
</svg>
