<svg width="70" height="70" viewBox="0 0 70 70" fill="none" xmlns="http://www.w3.org/2000/svg">
<path d="M13.4172 46.1154L5.11565 50.9066C4.558 51.2285 4.36674 51.9413 4.6887 52.5002C4.90456 52.8747 5.29652 53.0836 5.70009 53.0836C5.89723 53.0836 6.09792 53.0334 6.28221 52.9273L14.5838 48.1372C15.1414 47.8153 15.3327 47.1012 15.0107 46.5436C14.6888 45.9848 13.9748 45.7934 13.4172 46.1154Z" fill="white"/>
<path d="M16.3336 35.0011C16.3336 34.3572 15.811 33.8345 15.1671 33.8345L1.16656 33.8333C0.522649 33.8333 0 34.356 0 34.9999C0 35.645 0.522649 36.1664 1.16656 36.1664L15.1671 36.1677C15.811 36.1678 16.3336 35.6451 16.3336 35.0011Z" fill="white"/>
<path d="M19.9922 11.34C20.2081 11.7144 20.6 11.9233 21.0036 11.9233C21.2007 11.9233 21.4025 11.8732 21.5857 11.7671C22.1434 11.4451 22.3346 10.7311 22.0127 10.1736L19.0939 5.11754C18.7707 4.55989 18.0568 4.3674 17.5002 4.69058C16.9415 5.01254 16.7513 5.72659 17.0733 6.28423L19.9922 11.34Z" fill="white"/>
<path d="M5.11668 19.0944L16.917 25.9097C17.1001 26.0158 17.3007 26.066 17.4991 26.066C17.9028 26.066 18.2947 25.8572 18.5105 25.4826C18.8324 24.925 18.6423 24.2111 18.0835 23.8902L6.28324 17.0738C5.72682 16.7506 5.01045 16.942 4.68973 17.5007C4.36777 18.0585 4.55794 18.7724 5.11668 19.0944Z" fill="white"/>
<path d="M51.4883 25.4828C51.7042 25.8573 52.0961 26.0662 52.4997 26.0662C52.6968 26.0662 52.8975 26.016 53.0818 25.9099L64.8844 19.0969C65.4431 18.7737 65.6333 18.0609 65.3113 17.5021C64.9894 16.9445 64.2753 16.7532 63.7177 17.0752L51.9151 23.8893C51.3564 24.2113 51.1662 24.9252 51.4883 25.4828Z" fill="white"/>
<path d="M48.4154 11.7669C48.5997 11.8731 48.8004 11.9232 48.9975 11.9232C49.4012 11.9232 49.7932 11.7144 50.0089 11.3398L52.9277 6.28381C53.2497 5.72616 53.0584 5.01225 52.5008 4.69016C51.9408 4.36697 51.2292 4.55946 50.9071 5.11711L47.9883 10.1731C47.6665 10.731 47.8565 11.445 48.4154 11.7669Z" fill="white"/>
<path d="M47.0341 67.7244C47.0026 67.7139 43.771 66.6208 41.6572 64.5069C39.5619 62.4117 38.4991 60.3339 38.4991 58.3321V37.3331C38.4991 37.094 38.5481 34.9999 40.249 34.9999C41.5008 34.9999 41.9954 37.4253 42.0025 37.424L43.1691 52.5888C43.218 53.2293 43.7699 53.7146 44.422 53.6621C45.0636 53.6132 45.5455 53.052 45.4954 52.4092L44.316 37.1406C44.0395 35.4795 42.8717 32.6667 40.2492 32.6667C37.0188 32.6667 36.166 35.7198 36.166 37.3331V58.3321C36.166 60.9757 37.4586 63.6075 40.0076 66.1565C42.5064 68.6565 46.1428 69.8874 46.2968 69.9386C46.4193 69.9795 46.5441 69.9981 46.6653 69.9981C47.1542 69.9981 47.6092 69.689 47.7724 69.2001C47.9767 68.589 47.6454 67.9287 47.0341 67.7244Z" fill="white"/>
<path d="M29.7497 32.6667C27.1272 32.6667 25.9594 35.4795 25.6701 37.2433L24.5036 52.4092C24.4534 53.052 24.9352 53.613 25.5769 53.6621C26.2069 53.71 26.7808 53.2305 26.8299 52.5888L27.9836 37.5256C27.9882 37.4999 28.4841 34.9999 29.7497 34.9999C31.3911 34.9999 31.4961 36.9482 31.4997 37.3331V58.3321C31.4997 60.3339 30.4369 62.4117 28.3416 64.5069C26.2394 66.6091 22.9951 67.7139 22.9635 67.7255C22.3534 67.9309 22.0232 68.5912 22.2273 69.2013C22.3907 69.689 22.8457 69.9981 23.3333 69.9981C23.4558 69.9981 23.5795 69.9783 23.702 69.9386C23.856 69.8874 27.4924 68.6565 29.9912 66.1565C32.5402 63.6075 33.8328 60.9755 33.8328 58.3321V37.3331C33.8328 35.7198 32.98 32.6667 29.7497 32.6667Z" fill="white"/>
<path d="M67.1979 67.8983L53.1857 57.3895C52.4472 56.8506 51.6481 54.9432 51.3192 53.4931L47.8088 30.105C47.5546 28.8311 47.3142 27.5991 47.0821 26.4139C45.0009 15.7639 43.7444 9.33478 39.666 9.33478C37.2126 9.33478 36.1662 10.3812 36.1662 12.8346C36.1662 15.1854 37.2885 29.8018 37.3363 30.4235C37.3853 31.064 37.9476 31.5458 38.5893 31.4969C39.2309 31.4479 39.7128 30.8867 39.6626 30.2439C39.651 30.0923 38.4995 15.0966 38.4995 12.8346C38.4995 11.668 38.5216 11.668 39.666 11.668C41.8231 11.668 43.265 19.048 44.7933 26.8619C45.0243 28.0495 45.2657 29.285 45.512 30.5064L49.0269 53.9225C49.1191 54.3285 49.9755 57.9368 51.7988 59.2656L65.7981 69.7651C66.0081 69.9226 66.2541 69.9985 66.4968 69.9985C66.8514 69.9985 67.2026 69.8374 67.4312 69.5319C67.8173 69.0159 67.7134 68.2844 67.1979 67.8983Z" fill="white"/>
<path d="M63.7155 52.9296C63.8998 53.0358 64.1005 53.0859 64.2976 53.0859C64.7013 53.0859 65.0933 52.8771 65.309 52.5025C65.631 51.9449 65.4408 51.231 64.8821 50.9089L56.5816 46.1153C56.0216 45.7934 55.31 45.9847 54.9879 46.5435C54.666 47.1012 54.8562 47.814 55.4149 48.1372L63.7155 52.9296Z" fill="white"/>
<path d="M68.8333 33.8358H54.8317C54.1878 33.8358 53.6651 34.3584 53.6651 35.0023C53.6651 35.6462 54.1878 36.1689 54.8317 36.1689H68.8333C69.4772 36.1689 69.9998 35.6475 69.9998 35.0023C70 34.3583 69.4773 33.8358 68.8333 33.8358Z" fill="white"/>
<path d="M36.166 1.1687C36.166 0.524786 35.6434 0.00213623 34.9994 0.00213623C34.3555 0.00213623 33.8329 0.524786 33.8329 1.1687V4.66852C33.8329 5.31243 34.3555 5.83508 34.9994 5.83508C35.6434 5.83508 36.166 5.31243 36.166 4.66852V1.1687Z" fill="white"/>
<path d="M30.3329 9.33453C26.2544 9.33453 24.998 15.7637 22.9169 26.4137C22.6847 27.599 22.4444 28.8309 22.1796 30.1608L18.6762 53.5198C18.4919 54.9722 17.5866 56.9018 16.8002 57.3987L2.80094 67.8982C2.28527 68.2844 2.1815 69.0158 2.56758 69.5315C2.7963 69.8372 3.14737 69.9981 3.502 69.9981C3.74467 69.9981 3.99075 69.9222 4.20074 69.7647L18.1184 59.3213C19.7296 58.3145 20.7852 55.4388 20.987 53.8382L24.4763 30.562C24.7329 29.2846 24.9745 28.0492 25.2054 26.8615C26.7337 19.0476 28.1756 11.6677 30.3327 11.6677C31.4771 11.6677 31.4992 11.6677 31.4992 12.8342C31.4992 15.0963 30.3478 30.0919 30.3361 30.2435C30.2859 30.8863 30.7677 31.4474 31.4094 31.4965C32.044 31.5443 32.6122 31.0649 32.6624 30.4232C32.7102 29.8014 33.8325 15.185 33.8325 12.8342C33.8327 10.3811 32.7864 9.33453 30.3329 9.33453Z" fill="white"/>
</svg>
