<svg width="70" height="70" viewBox="0 0 70 70" fill="none" xmlns="http://www.w3.org/2000/svg">
<g clip-path="url(#clip0)">
<path d="M42.242 15.6563C45.4786 17.6856 47.7482 21.1197 48.1614 25.1058C49.4813 25.7226 50.9463 26.0772 52.4996 26.0772C58.17 26.0772 62.7659 21.4813 62.7659 15.8118C62.7659 10.1414 58.17 5.54547 52.4996 5.54547C46.8833 5.54722 42.3276 10.061 42.242 15.6563ZM35.5163 36.6764C41.1867 36.6764 45.7826 32.0796 45.7826 26.4101C45.7826 20.7405 41.1858 16.1446 35.5163 16.1446C29.8467 16.1446 25.2482 20.7414 25.2482 26.4109C25.2482 32.0805 29.8467 36.6764 35.5163 36.6764ZM39.8711 37.3761H31.1597C23.9116 37.3761 18.015 43.2737 18.015 50.5218V61.1751L18.0421 61.3419L18.7759 61.5717C25.6929 63.7329 31.7022 64.4536 36.6484 64.4536C46.3094 64.4536 51.909 61.6992 52.2541 61.5236L52.9398 61.1768H53.0132V50.5218C53.0158 43.2737 47.1192 37.3761 39.8711 37.3761ZM56.8561 26.7778H48.212C48.1186 30.2363 46.6422 33.3507 44.3071 35.5905C50.7498 37.5063 55.4636 43.4807 55.4636 50.5375V53.8204C63.9985 53.5077 68.9168 51.0887 69.2409 50.9262L69.9266 50.5785H70V39.9217C70 32.6745 64.1033 26.7778 56.8561 26.7778ZM17.5022 26.079C19.5105 26.079 21.3791 25.4928 22.9621 24.4943C23.4652 21.2123 25.2246 18.3443 27.7379 16.391C27.7484 16.1988 27.7668 16.0083 27.7668 15.8144C27.7668 10.144 23.17 5.54809 17.5022 5.54809C11.8309 5.54809 7.23586 10.144 7.23586 15.8144C7.23586 21.4822 11.8309 26.079 17.5022 26.079ZM26.7219 35.5905C24.3982 33.362 22.9271 30.2643 22.8197 26.8268C22.4991 26.8032 22.182 26.7778 21.8552 26.7778H13.1448C5.89666 26.7778 -3.8147e-06 32.6745 -3.8147e-06 39.9217V50.5768L0.0270772 50.741L0.760885 50.9725C6.30987 52.7048 11.2622 53.5033 15.5637 53.7549V50.5375C15.5655 43.4807 20.2775 37.508 26.7219 35.5905Z" fill="white"/>
</g>
<defs>
<clipPath id="clip0">
<rect width="70" height="70" fill="white"/>
</clipPath>
</defs>
</svg>
