<svg width="34" height="34" viewBox="0 0 34 34" fill="none" xmlns="http://www.w3.org/2000/svg">
<path d="M20.5175 7.60448C22.0896 8.59016 23.192 10.2581 23.3927 12.1942C24.0338 12.4938 24.7454 12.6661 25.4998 12.6661C28.254 12.6661 30.4863 10.4338 30.4863 7.68001C30.4863 4.92581 28.254 2.69351 25.4998 2.69351C22.7719 2.69436 20.5591 4.88677 20.5175 7.60448ZM17.2508 17.8142C20.005 17.8142 22.2373 15.5815 22.2373 12.8277C22.2373 10.074 20.0045 7.84167 17.2508 7.84167C14.497 7.84167 12.2634 10.0744 12.2634 12.8282C12.2634 15.5819 14.497 17.8142 17.2508 17.8142ZM19.366 18.1541H15.1347C11.6142 18.1541 8.75013 21.0186 8.75013 24.5391V29.7136L8.76328 29.7946L9.11971 29.9062C12.4794 30.956 15.3982 31.306 17.8007 31.306C22.4931 31.306 25.213 29.9682 25.3806 29.8829L25.7136 29.7145H25.7493V24.5391C25.7506 21.0186 22.8865 18.1541 19.366 18.1541ZM27.6158 13.0064H23.4173C23.3719 14.6862 22.6548 16.1989 21.5206 17.2868C24.6499 18.2173 26.9395 21.1192 26.9395 24.5468V26.1413C31.085 25.9894 33.4739 24.8145 33.6313 24.7356L33.9644 24.5667H34V19.3906C34 15.8705 31.1359 13.0064 27.6158 13.0064ZM8.50106 12.6669C9.47655 12.6669 10.3842 12.3822 11.153 11.8972C11.3974 10.3031 12.252 8.91009 13.4727 7.96133C13.4778 7.86798 13.4867 7.77548 13.4867 7.68128C13.4867 4.92708 11.254 2.69478 8.50106 2.69478C5.74644 2.69478 3.51456 4.92708 3.51456 7.68128C3.51456 10.4342 5.74644 12.6669 8.50106 12.6669ZM12.9792 17.2868C11.8506 16.2044 11.136 14.6998 11.0838 13.0301C10.9281 13.0187 10.7741 13.0064 10.6154 13.0064H6.3846C2.8641 13.0064 0 15.8705 0 19.3906V24.5659L0.0131536 24.6456L0.369574 24.7581C3.06479 25.5995 5.47021 25.9873 7.55952 26.1095V24.5468C7.56036 21.1192 9.8491 18.2182 12.9792 17.2868Z" fill="#393939"/>
</svg>
